<?xml version="1.0" encoding="utf-8"?>
<!-- Generator: Adobe Illustrator 21.0.2, SVG Export Plug-In . SVG Version: 6.00 Build 0)  -->
<svg version="1.1" id="Calque_1" xmlns="http://www.w3.org/2000/svg" xmlns:xlink="http://www.w3.org/1999/xlink" x="0px" y="0px"
	 viewBox="0 0 728.5 358" style="enable-background:new 0 0 728.5 358;" xml:space="preserve">
<style type="text/css">
	.st0{fill:#FFFFFF;}
</style>
<g>
	<g>
		<path class="st0" d="M300.7,113.3v47.8c0,7.5-2.1,13.3-6.3,17.3c-4.2,4.1-8.9,6.1-15.6,6.1c-6.8,0-11.6-2-15.7-6.1
			c-4.2-4.1-6.3-9.9-6.3-17.3v-47.8h13v47.8c0,4.3,0.8,7.4,2.5,9.5c1.7,2,3.4,3,6.4,3c3.1,0,4.8-1,6.4-2.9c1.7-1.9,2.5-5.1,2.5-9.6
			v-47.8H300.7z"/>
		<path class="st0" d="M358.6,183.5h-13l-20.4-44.9l-0.3,0.1v44.8h-13.1v-70.3H325l20.4,44.9l0.3-0.1v-44.8h13V183.5z"/>
		<path class="st0" d="M384.7,183.5h-13v-70.3h13V183.5z"/>
		<path class="st0" d="M418,165.6l0.5,2.7h0.3l0.5-2.6l11.1-52.5h13.7l-18.7,70.3h-13.6l-18.7-70.3H407L418,165.6z"/>
		<path class="st0" d="M487.5,152.7H465v19.9h26.4v11H452v-70.3h39.3v11H465v17.5h22.4V152.7z"/>
		<path class="st0" d="M514.5,155.6v27.9h-13v-70.2h21.8c6.6,0,11.7,1.8,15.5,5.5c3.7,3.7,5.6,8.7,5.6,15.2c0,3.7-0.8,6.8-2.3,9.5
			c-1.6,2.7-3.8,4.8-6.8,6.3c3.4,1.2,5.9,3.2,7.4,6.1c1.5,2.8,2.3,6.4,2.3,10.6v5c0,1.9,0.2,4,0.6,6.2c0.4,2.2,1.2,3.8,2.2,4.8v1
			h-13.5c-1.1-1-1.7-2.7-2-5c-0.3-2.3-0.4-4.7-0.4-7.1v-4.8c0-3.5-0.7-6.2-2-8.2c-1.4-1.9-3.3-2.9-5.8-2.9H514.5z M514.5,144.6h8.7
			c2.7,0,4.7-0.9,6.1-2.6c1.4-1.7,2.1-4.1,2.1-7.3c0-3.2-0.7-5.8-2.1-7.7c-1.4-1.9-3.4-2.8-6-2.8h-8.8V144.6z"/>
		<path class="st0" d="M585.8,165.2c0-2.7-0.7-4.9-2-6.5c-1.3-1.6-3.7-3.2-7.1-4.7c-6.9-2.5-12.1-5.4-15.6-8.7
			c-3.5-3.2-5.2-7.8-5.2-13.6c0-5.8,2-10.4,6.1-14.1c4-3.6,9.2-5.4,15.4-5.4c6.4,0,11.5,2,15.5,6.1c4,4,5.9,9.1,5.8,15.3l-0.1,0.3
			h-12.7c0-3.2-0.8-5.8-2.3-7.8c-1.5-2-3.7-3-6.5-3c-2.6,0-4.6,0.8-6.1,2.5c-1.5,1.7-2.2,3.7-2.2,6.2c0,2.3,0.8,4.2,2.4,5.7
			c1.6,1.5,4.4,3.2,8.4,5c6.3,2.3,11.1,5.1,14.3,8.6c3.2,3.5,4.8,8.1,4.8,14c0,6.1-1.9,10.8-5.8,14.3c-3.9,3.4-9,5.2-15.4,5.2
			c-6.4,0-11.9-2-16.5-5.9c-4.7-3.9-6.9-9.5-6.8-16.8l0.1-0.3h12.7c0,4.3,0.9,7.5,2.6,9.4c1.7,1.9,4.4,2.8,7.9,2.8
			c2.8,0,4.8-0.8,6.1-2.3C585.1,169.9,585.8,167.8,585.8,165.2z"/>
		<path class="st0" d="M623,183.5h-13v-70.3h13V183.5z"/>
		<path class="st0" d="M674.1,124.2h-15v59.3h-13v-59.3h-14.9v-11h43V124.2z"/>
		<path class="st0" d="M718.2,152.7h-22.4v19.9h26.4v11h-39.4v-70.3h39.3v11h-26.3v17.5h22.4V152.7z M702.7,95.4h13.7l0.1,0.3
			l-11.4,12.5l-10.5,0L702.7,95.4z"/>
	</g>
	<path class="st0" d="M172.3,197.5c0,25.6,0,58.6,0,58.7c0,26.6-21.6,48.2-48.2,48.2c-0.2,0-0.3,0-0.5,0v0c0,0,0,0,0,0c0,0,0,0,0,0
		v0c-0.2,0-0.3,0-0.5,0c-26.6,0-48.2-21.7-48.2-48.2c0-0.1,0-33.1,0-58.7H60.6l0,43.8c0,8.8,0,14.7,0,14.8c0,34.4,28,62.4,62.4,62.4
		c0.2,0,0.3,0,0.4,0c0.1,0,0.3,0,0.4,0c34.4,0,62.4-28,62.4-62.4c0-0.1,0-6,0-14.8l0-43.8H172.3z"/>
	
		<rect x="32.8" y="141.4" transform="matrix(-1 1.059782e-10 -1.059782e-10 -1 247.5292 296.8964)" class="st0" width="181.9" height="14"/>
</g>
<g>
	<path class="st0" d="M256.8,267.7v-70.3H277c6.8,0,12.5,2.7,17,8.2c4.5,5.5,6.7,12.5,6.7,21.1v11.8c0,8.6-2.2,15.6-6.7,21
		c-4.5,5.4-10.1,8.2-17,8.2H256.8z M269.8,208.4v48.4h6.4c3.6,0,6.4-1.7,8.4-5c2-3.3,3-7.8,3-13.3v-11.9c0-5.5-1-9.9-3-13.2
		c-2-3.3-4.8-5-8.4-5H269.8z"/>
	<path class="st0" d="M347.4,236.9H325v19.9h26.4v11h-39.4v-70.3h39.3v11H325v17.5h22.4V236.9z"/>
	<path class="st0" d="M397.7,256.8h22.7v11h-35.8v-70.3h13.1V256.8z"/>
	<path class="st0" d="M439.3,227.6h0.3l11.1-30.1h14.2l-19.1,45.3v25h-13v-25.9L414,197.5h14.3L439.3,227.6z"/>
	<path class="st0" d="M514.9,242.5c0,8.2-2.1,14.7-6.4,19.3c-4.2,4.6-9.9,6.9-17,6.9c-7.1,0-12.7-2.3-16.9-6.9
		c-4.2-4.6-6.3-11.1-6.3-19.3v-19.7c0-8.2,2.1-14.6,6.3-19.3c4.2-4.7,9.8-7,16.9-7c7,0,12.7,2.3,17,7c4.3,4.7,6.4,11.1,6.4,19.3
		V242.5z M502,222.6c0-5-0.9-8.8-2.7-11.4c-1.8-2.6-4.4-3.8-7.7-3.8c-3.4,0-6,1.3-7.7,3.8c-1.7,2.5-2.6,6.4-2.6,11.4v19.8
		c0,5.1,0.9,8.9,2.6,11.5c1.7,2.5,4.3,3.8,7.7,3.8c3.4,0,5.9-1.3,7.7-3.8c1.8-2.5,2.7-6.4,2.7-11.5V222.6z"/>
	<path class="st0" d="M573,267.7h-13l-20.4-44.9l-0.3,0.1v44.8h-13.1v-70.3h13.1l20.4,44.9l0.3-0.1v-44.8h13V267.7z"/>
	<path class="st0" d="M200.6,197.5c0,25.5,0,58.4,0,58.7c0,42.2-34.3,76.5-76.5,76.5c-0.1,0-0.3,0-0.4,0v0c0,0,0,0,0,0c0,0,0,0,0,0
		v0c-0.1,0-0.3,0-0.4,0c-42.2,0-76.5-34.3-76.5-76.5c0-0.3,0-33.3,0-58.7H32.5c0,25.4,0,58.4,0,58.7c0,49.9,40.6,90.6,90.6,90.6
		c0.2,0,0.3,0,0.5,0c0.2,0,0.3,0,0.5,0c49.9,0,90.6-40.6,90.6-90.6c0-0.3,0-33.3,0-58.7H200.6z"/>
	<path class="st0" d="M143.9,197.5c0,26,0,58.1,0,58.2c0,11.2-9,20.3-20.2,20.3v0l-0.1,0l-0.1,0v0c-11.1-0.1-20.2-9.2-20.2-20.3
		c0-0.1,0-32.2,0-58.2H89c0,26,0,58.1,0,58.2c0,19,15.5,34.5,34.5,34.5v0c0,0,0,0,0,0c0,0,0,0,0,0v0c19,0,34.5-15.5,34.5-34.5
		c0-0.1,0-32.2,0-58.2H143.9z"/>
	
		<rect x="32.8" y="169.5" transform="matrix(-1 1.059831e-10 -1.059831e-10 -1 247.5292 352.9716)" class="st0" width="181.9" height="14"/>
	<path class="st0" d="M219,38c0,0-0.3-0.5-0.9-1.2c-0.6-0.7-2-1.5-2.8-2.2c-0.7-0.7-1.5-1.8-2-2.1c-0.4-0.3-1.2-1.6-1.6-1.9
		c-0.4-0.3-0.9-2.5-1-2.7c0-0.2-0.2-0.9-0.9-1.2c-0.4-0.2-1.4-0.8-2-1.3c-0.6-0.5-2.3-2.1-2.3-2.1s-0.4-2.6-1.1-4
		c-0.6-1.4-0.9-1.9-1.2-2.5c-0.3-0.5-0.5-0.6-0.6-1.5c0,0-0.9-0.1-1.7,0.5c0,0-1.7-1.3-3.4-2.3c-1.7-1-3.7-2.1-4.5-2.2
		c-0.8-0.2-1.9-0.8-2.3-1.2c0,0-1.2-0.1-2.2,0.1c-0.7,0.1-3,0.3-4.3,0.5c-1.2,0.2-4.3,0.7-5,0.7c-1.5,0.1-1.8,0.2-4,0.6
		c0,0-1.7,0.3-2.3,0.5c-0.6,0.2-2.5,1-3.8,1.1c-1.4,0.2-2.9,0.2-4.6,0.5c-0.8,0.1-3.7,1.3-5.1,1.6c-0.6,0.2-1.4,0.3-1.4,0.3
		s0.3,1,1,1.1c0,0-0.4,0.9-1.3,1.3c-0.9,0.5-1.9,0.9-3.2,1.4c-1.3,0.4-3.4,1.3-3.9,1.7c0,0,0.4,0.8,1.2,1.2c0,0,0.2,0.1-0.9,0.7
		c-1.1,0.6-3.7,1.7-4.8,2.2c-1.2,0.5-2.8,1.5-3.6,1.9c-1.1,0.6-1.2,0.6-2.3,1.3c-1.1,0.6-0.5,0.6-0.5,0.6s0.5,0.1,1.3,0.2
		c0.8,0.1,1.2,0.4,1.2,0.4s0.1,0.4-0.5,0.9c-0.5,0.5-1.3,1.5-3.1,2.8c-0.9,0.6-1.7,1.3-2.7,2c-1,0.7-2,1.9-2.4,2.1l1.1,0.9l-0.2,0.7
		c-0.5,0.3-1,0.6-1.8,0.9c-0.8,0.4-7.9,1.3-16,1.2c-13.6-0.2-17.4-1.9-24.3-2.3c-7-0.3-12.1,1.2-18.5,3.1c-1.2,0.4-2.2,0.8-3,1.1
		c-2.7,0.6-5.4,1.3-7.8,2.2C54.4,49,39,61.8,34.7,63.6c-4.3,1.8-6.7,1.9-9.7,1.5c-3-0.4-4.2-1.1-4.2-1.1s-1.5-3.3-3.3-4.6
		c-2.3-1.7-8-3.7-8-3.7s-1,3.7,1,7.3c2.4,4.3,7.2,4,8.9,4.7c3,1.2,10.2,2.7,16.3,0.2c5.5-2.2,11-5.8,14.9-8
		c3.9-2.2,10.2-4.1,15.5-4.7c-0.2,0.9-0.5,1.8-0.8,2.6c-1.5,4.5-7,14.1-8.1,15.7c-1.3,1.9-6.4,8.1-7.3,8.8c-0.9,0.8-3.1,1.6-5.8,2.1
		c-3,0.6-11.6,1.4-11.6,1.4s-1.5,7.7-3.4,12.4c-0.8,1.9-2.6,5.7-2.6,5.7s3.2,3,4.2,6.8c0.5,1,1.3,2.5,2,3V127h0v0.4h181.9v-14h0
		c0.3-1.1,0.8-3.5-1.3-4.5c-2.7-1.3-0.5-2.3-6.8-4.7c-1.8-0.7-4.8-1.6-5.8-2.5c-1-0.8-6.5-8.4-9.2-11.7c-2.7-3.2-8.3-10.6-8.3-10.6
		l-1.2-2.9l0.2-2.2c0.3-0.4,0.7-0.7,1-1.1c1-1.1,2.5-2.6,2.9-3.5c1-2.1,0.7-0.1,1.3-1.2c0.5-0.9,2.3-1.9,3.1-2.4
		c0.8-0.5,1.9-1.9,1.9-1.9s0,0.8,0.3,1.7c0,0,0.5-0.4,1.4-1.5c0.9-1.1,0.6-1.2,1.6-2.2c1.1-1,1.8-3.1,2.5-4.5c0.7-1.3,1.1-1.7,1.3-2
		c0,0,0.4,1.1,0.7,1.8c0,0,0.7-0.7,1-1.3c0.3-0.7,0.5-1.5,1-2.3c0.5-0.8,0.8-1.8,1.3-2c0.5-0.2,1.4-0.8,2.4-0.8
		c0.7,0,1.7,0.4,2.6,0.6c0.8,0.2,1.2-0.2,1.8,0.6c0.6,0.8,1.4,1.2,1.4,1.2s0-0.1,0.7-0.5c0.7-0.4,0.8-0.4,1.4-0.8
		c0.7-0.5,0.5-0.7,1-1.2c0.5-0.5,0.8-1,1.1-1.9c0.2-0.9-0.2-1.4,0.3-1.8c0.4-0.4,1.3-0.4,1.7-1.4c0.4-1,0.3-1.2,0.5-1.3
		c0.2-0.2,0.3-0.9,0.3-0.9s1.2-1,1.4-1.8c0.2-0.8,0.3-1.1,0.7-1.5C220.9,40.2,220.6,39,219,38z M124.3,84.4c1.3,0.6,4.4,2,7.9,3.3
		c0.3,0.9,0.6,2.2,0.5,4c-0.3,4.5-4.8,10.1-4.8,10.1s2.3,5.6,2.9,6.4c0.6,0.8,2.7,2.5,3.4,3.8c0.2,0.4,0.5,0.9,0.6,1.4h-12.3
		c0.2-1.7-0.9-2.4-1.2-2.7c-0.7-0.7-1.3-2-2.9-2.6c-5.7-2-5.7-1.2-7.3-2.5c-1.1-0.9-4-2.8-4.6-4c-0.6-1.2-1.8-6.4-1.8-11
		c0-2.7-0.2-5.3-0.4-6.9C109.6,82.8,117.9,81.5,124.3,84.4z M39.4,96.5c1.8-0.8,5.9,0.8,10,0.1c6.2-1.1,15.1-4.2,18.1-5.6
		c2.7-1.2,7.6-5.8,9.1-7.1c1.5-1.2,3-1.6,3-1.6s1.8,1.9,5.4,5.1c3.6,3.2,4.9,4.7,6.1,5.8c1.2,1,2.8,3.2,3,4c1,3.2,0.6,8.5,0.6,8.5
		s5.7,2,7.5,3.6c1.3,1.1,2.4,3,2.9,4H47.2c0.1-1,0.2-3.1-1.9-3.8c-1.5-0.6-1.2-1.2-4.4-2.3c-1.3-0.5-2-1-2.7-2.7
		c-0.6-1.7-0.7-4.5-0.7-4.5S37.8,97.2,39.4,96.5z M183.4,102c0,0,5.9,2.2,7.3,4.2c0.9,1.3,6.2,2.8,6.2,2.8s1.6,0.1,3.7,2
		c1.6,1.5,2.1,2.1,3.1,2.4H150c0.2-0.9,0.2-2.3-1.1-3.1c-0.9-0.5-1.6-1.4-2.6-1.9c-3.7-1.8-4.1-1.1-5.7-2.4
		c-0.9-0.6-1.5-3.5-1.5-3.5s6.8-6.7,8.1-8.4c1.6-2.1,2.3-3,3-4c5.1-0.5,10.5-1.4,12.3-2.4c0.5-0.3,1-0.6,1.4-0.9
		c0.6,0.3,1.1,0.6,1.5,0.9c2.7,1.6,9.6,4.5,12,6.4C180,96.2,183.4,102,183.4,102z"/>
</g>
</svg>
